<svg width="92" height="118" viewBox="0 0 92 118" fill="none" xmlns="http://www.w3.org/2000/svg">
  <path fill-rule="evenodd" clip-rule="evenodd" d="M73.3093 48.8404L73.3072 48.8455C78.0847 54.8359 80.9398 62.4233 80.9398 70.6757C80.9398 79.0509 77.9991 86.7412 73.0928 92.7723L72.6703 93.2916L72.5583 92.6316C72.4631 92.0703 72.3511 91.5038 72.2211 90.9325C69.7656 80.1439 61.7653 70.8926 48.598 63.4019C39.7063 58.3575 34.6167 52.2833 33.2804 45.382C32.4174 40.9193 33.059 36.4368 34.299 32.5974C35.5385 28.7593 37.3825 25.5436 38.949 23.6075L38.95 23.6063L44.0721 17.343C44.9704 16.2446 46.6515 16.2446 47.5498 17.343L73.3093 48.8404ZM81.4109 42.5828L81.4119 42.5804L47.0799 0.601151C46.4244 -0.200383 45.1972 -0.200384 44.5417 0.60115L10.2093 42.5809L10.2103 42.5832L10.0986 42.7218C3.78076 50.5616 0 60.5246 0 71.37C0 96.6286 20.5097 117.106 45.8107 117.106C71.1118 117.106 91.6215 96.6286 91.6215 71.37C91.6215 60.5246 87.8407 50.5616 81.523 42.7218L81.4109 42.5828ZM18.424 48.7051L18.4254 48.7034L21.4962 44.9485L21.589 45.6416C21.6625 46.1908 21.7517 46.7428 21.8574 47.2971C23.8443 57.7221 30.9422 66.4147 42.8092 73.1471C53.1243 79.0178 59.1302 85.7688 60.8607 93.1727C61.5826 96.2627 61.7114 99.3029 61.3987 101.961L61.3793 102.125L61.2305 102.198C56.5749 104.473 51.3412 105.749 45.8097 105.749C26.4084 105.749 10.6796 90.0467 10.6796 70.6757C10.6796 62.359 13.5792 54.7171 18.424 48.7051Z" fill="white"/>
</svg>
